# xmcd CD database file
#
# Track frame offsets:
#	182
#	13820
#	28460
#	42127
#	56545
#	71177
#	85800
#	99002
#	113040
#	127150
#	142650
#	156927
#	170525
#	184577
#	198600
#	212490
#	226540
#	240065
#	253570
#
# Disc length: 3554 seconds
#
# Revision: 4
# Processed by: cddbd v1.5.2PL0 Copyright (c) Steve Scherf et al.
# Submitted via: CDex 1.83
#
DISCID=f50de013
DTITLE=Bix Beiderbecke - Bix and Tram CD01
DYEAR=1927
DGENRE=Jazz
TTITLE0=Trumbology
TTITLE1=Clarinet Marmalade
TTITLE2=Singin' The Blues
TTITLE3=Ostrich Walk
TTITLE4=Riverboat Shuffle
TTITLE5=I'm Coming Virginia
TTITLE6=Way Down Yonder In New Orleans
TTITLE7=For No Reason At All In C
TTITLE8=Three Blind Mice
TTITLE9=Blue River
TTITLE10=There's A Cradle In Caroline
TTITLE11=Wringin' And Twistin'
TTITLE12=Humpty Dumpty
TTITLE13=Krazy Kat
TTITLE14=Baltimore
TTITLE15=There Ain't No Land Like Dixieland To Me
TTITLE16=There's A Cradle In Caroline
TTITLE17=Just An Hour Of Love
TTITLE18=I'm Wonderin' Who
EXTD=YEAR: 1927
EXTT0=
EXTT1=
EXTT2=
EXTT3=
EXTT4=
EXTT5=
EXTT6=
EXTT7=
EXTT8=
EXTT9=
EXTT10=
EXTT11=
EXTT12=
EXTT13=
EXTT14=
EXTT15=
EXTT16=
EXTT17=
EXTT18=
PLAYORDER=
